<?xml version="1.0" standalone="no"?>
<!DOCTYPE svg PUBLIC "-//W3C//DTD SVG 20010904//EN"
 "http://www.w3.org/TR/2001/REC-SVG-20010904/DTD/svg10.dtd">
<svg version="1.0" xmlns="http://www.w3.org/2000/svg"
 width="894.000000pt" height="894.000000pt" viewBox="0 0 894.000000 894.000000"
 preserveAspectRatio="xMidYMid meet">
<metadata>
Created by potrace 1.11, written by Peter Selinger 2001-2013
</metadata>
<g transform="translate(0.000000,894.000000) scale(0.100000,-0.100000)"
fill="#000000" stroke="none">
<path d="M3685 8909 c-44 -15 -105 -34 -135 -44 l-55 -16 0 -2491 c0 -1369 -3
-2494 -6 -2499 -4 -8 -115 -52 -364 -145 -22 -9 -46 -16 -52 -16 -7 -1 -13 -5
-13 -10 0 -4 -6 -8 -12 -8 -12 0 -63 -18 -218 -77 -122 -46 -165 -62 -250 -94
-95 -35 -112 -41 -155 -59 -16 -6 -50 -19 -75 -27 -25 -9 -56 -20 -70 -26 -14
-6 -27 -11 -30 -12 -3 -1 -12 -4 -20 -8 -8 -3 -78 -29 -155 -57 -77 -28 -167
-62 -200 -75 -33 -13 -195 -73 -360 -134 -165 -62 -313 -118 -328 -126 -16 -8
-35 -15 -43 -15 -7 0 -38 -11 -69 -24 -30 -14 -55 -22 -55 -19 0 3 -6 1 -12
-4 -7 -6 -40 -20 -73 -31 -211 -72 -330 -126 -477 -213 -148 -88 -167 -103
-307 -242 l-149 -148 0 -186 c0 -149 4 -195 18 -234 9 -27 20 -52 23 -56 4 -3
7 -16 7 -28 0 -11 4 -25 9 -31 5 -5 14 -27 20 -49 37 -124 54 -144 219 -266
84 -63 167 -122 185 -131 55 -30 450 -195 482 -202 17 -3 39 -8 50 -10 11 -2
67 -14 125 -26 58 -12 116 -24 130 -27 14 -2 41 -8 60 -13 19 -5 49 -11 65
-14 17 -3 44 -9 60 -12 17 -4 39 -8 50 -10 11 -1 20 -3 20 -4 0 -10 59 -13
590 -36 148 -6 273 -6 283 0 4 2 35 7 67 11 33 3 67 8 75 10 13 4 301 47 410
61 19 3 46 7 60 9 14 2 45 7 70 10 57 8 142 26 155 34 6 3 15 6 20 7 6 1 57
19 115 39 58 20 109 37 114 38 6 1 10 -103 10 -255 1 -141 3 -259 6 -262 3 -3
64 -28 135 -56 72 -28 139 -55 150 -60 11 -5 126 -50 255 -100 129 -51 249
-98 265 -105 17 -7 73 -30 125 -50 98 -37 202 -78 255 -100 17 -7 73 -30 125
-50 52 -20 109 -43 125 -50 17 -7 70 -28 118 -47 l89 -35 376 190 c629 316
672 337 675 335 2 -2 10 2 18 9 8 6 280 145 604 308 325 163 806 406 1070 538
264 133 483 246 486 250 3 5 9 8 13 8 15 -2 163 80 192 106 17 15 56 51 88 78
31 28 69 61 84 75 15 14 39 34 53 45 30 24 53 65 99 180 31 79 32 83 34 262
l2 182 -63 98 c-35 54 -70 107 -79 118 -8 11 -25 37 -37 58 -15 26 -36 45 -67
59 -381 174 -529 240 -545 243 -20 5 -121 25 -143 30 -13 2 -31 6 -40 9 -9 3
-53 12 -97 20 -44 8 -91 17 -105 20 -34 8 -71 16 -95 20 -11 2 -65 13 -120 25
-55 11 -111 22 -125 25 -14 2 -92 18 -175 35 -82 17 -161 32 -175 35 -14 3
-36 8 -50 11 -14 3 -43 9 -65 12 -53 9 -744 8 -815 0 -30 -4 -77 -10 -105 -13
-53 -6 -149 -28 -305 -70 -52 -14 -102 -27 -110 -29 -56 -12 -110 -30 -157
-51 -30 -14 -57 -23 -61 -20 -6 7 -6 1496 1 1502 3 3 1 21 -3 40 -4 18 -4 34
0 34 4 0 5 15 1 33 -5 18 -6 41 -5 52 2 11 4 31 4 45 0 14 1 45 1 70 0 25 0
52 0 60 0 8 0 56 0 105 0 50 0 549 1 1110 l1 1020 48 75 c30 47 58 80 76 87
103 44 122 51 127 46 3 -3 49 -94 102 -202 l97 -196 1 -1628 1 -1628 25 -14
c14 -7 68 -34 120 -58 52 -25 131 -62 175 -83 l80 -39 310 0 c210 -1 325 3
355 11 25 7 131 38 235 70 l190 57 225 173 c159 123 230 183 241 206 25 54
234 463 239 468 6 6 9 17 46 210 3 14 14 63 24 110 10 47 21 96 24 110 6 31
33 167 40 200 8 34 25 120 33 156 3 16 5 40 5 54 1 27 -12 321 -17 405 -2 28
-6 120 -10 205 -10 230 -15 264 -75 447 -6 18 -13 42 -15 54 -2 12 -12 47 -21
78 -9 31 -17 61 -19 66 -8 38 -17 72 -22 85 -3 8 -8 23 -10 34 -9 49 -44 138
-78 196 -21 36 -51 90 -67 120 -17 30 -50 89 -73 130 -23 41 -57 102 -74 135
-35 66 -71 102 -277 282 -11 10 -58 52 -103 93 -46 41 -111 94 -144 117 -34
23 -67 46 -72 51 -6 5 -15 11 -20 13 -12 5 -248 161 -255 169 -11 11 -61 32
-205 84 -82 29 -202 72 -265 95 -63 23 -126 43 -139 46 -31 6 -197 44 -241 55
-19 5 -78 19 -130 30 -52 12 -131 30 -175 41 -44 10 -91 21 -105 24 -14 2 -45
9 -70 15 -25 6 -54 13 -65 15 -11 2 -81 18 -155 35 -74 17 -142 33 -151 35 -8
2 -44 10 -80 19 -92 22 -370 86 -399 92 -13 3 -60 14 -105 24 -45 10 -92 21
-105 23 -14 3 -74 17 -135 32 -60 14 -121 29 -135 31 -32 6 -144 32 -190 44
-39 10 -82 20 -120 26 -14 3 -43 10 -65 16 -60 17 -64 16 -150 -13z m-190
-6285 c-1 -91 -4 -127 -14 -133 -7 -5 -39 -17 -72 -27 -32 -10 -59 -22 -59
-26 0 -5 -6 -8 -13 -8 -13 0 -559 -206 -624 -236 -17 -8 -36 -14 -42 -14 -6 0
-19 -4 -29 -9 -34 -17 -69 -32 -172 -70 -58 -22 -134 -52 -170 -66 -36 -15
-69 -28 -75 -29 -5 -2 -23 -8 -40 -15 -201 -80 -193 -79 -361 -85 -66 -3 -124
-6 -130 -7 -28 -5 -33 3 -30 41 2 23 5 42 7 45 2 2 90 40 194 85 105 45 208
90 230 100 51 22 162 69 195 82 14 6 32 14 41 18 9 5 78 34 155 65 76 32 156
66 177 76 20 11 37 17 37 14 0 -3 22 6 49 19 27 14 51 22 55 19 3 -4 6 -1 6 5
0 7 5 12 10 12 9 0 265 104 355 145 17 7 59 25 95 40 108 45 124 51 160 68 67
30 66 31 65 -109z m3700 -89 c28 -3 64 -8 80 -10 17 -2 35 -4 41 -4 14 -1 24
-35 15 -48 -3 -6 -55 -31 -116 -57 -119 -51 -136 -59 -238 -105 -37 -17 -70
-31 -72 -31 -2 0 -28 -11 -57 -24 -52 -24 -143 -64 -288 -126 -41 -18 -97 -43
-125 -55 -27 -13 -115 -51 -195 -85 -80 -34 -163 -70 -185 -80 -22 -10 -74
-32 -115 -50 -41 -17 -103 -45 -138 -61 -35 -16 -65 -29 -67 -29 -3 0 -47 -18
-97 -41 -51 -22 -106 -47 -123 -54 -53 -23 -100 -42 -109 -43 -11 -2 -15 296
-4 319 4 9 18 19 31 23 13 3 40 12 60 21 20 8 38 15 39 15 2 -1 38 15 81 34
43 20 85 36 93 36 7 0 14 4 14 8 0 5 6 9 13 9 6 0 32 9 57 21 25 11 74 32 110
47 36 14 74 30 85 35 22 10 97 42 105 45 20 7 51 20 87 36 24 10 50 19 58 19
8 0 15 5 15 10 0 6 5 10 11 10 9 0 148 56 234 95 67 29 84 35 170 55 50 11
146 33 215 50 126 29 168 31 315 15z"/>
</g>
</svg>
